<svg width="143" height="137" viewBox="0 0 143 137" fill="none" xmlns="http://www.w3.org/2000/svg">
<path d="M143 39.0284V0C118.022 0 93.6681 8.43011 76.1834 23.1048L71.5 26.8515L66.8165 23.1048C49.0196 8.43011 24.9782 0 0 0V39.0284C0 49.6441 3.74676 59.6353 9.9913 68.0654C3.74676 76.4956 0 86.4869 0 97.1026V136.131C24.9782 136.131 49.3318 127.701 66.8165 113.026L71.5 109.279C59.3231 102.098 51.8297 89.2969 51.8297 74.9345V61.1965C51.8297 47.1463 59.3231 34.0328 71.5 26.8515C83.6768 34.0328 91.1703 47.1463 91.1703 61.1965V74.9345C91.1703 88.9847 83.6768 102.098 71.5 109.279L76.1834 113.026C93.9803 127.701 118.022 136.131 143 136.131V97.1026C143 86.4869 139.253 76.4956 133.009 68.0654C139.253 59.6353 143 49.6441 143 39.0284Z" fill="#16A34A"/>
</svg>
